<svg width="24" height="24" viewBox="0 0 24 24" fill="none" xmlns="http://www.w3.org/2000/svg">
<path d="M14.84 7.92167L9.83501 12.9383L7.91001 11.0133C7.80542 10.8912 7.67671 10.792 7.53197 10.722C7.38723 10.652 7.22957 10.6126 7.0689 10.6064C6.90823 10.6002 6.74801 10.6273 6.5983 10.6859C6.44858 10.7446 6.31261 10.8335 6.19891 10.9472C6.08522 11.0609 5.99625 11.1969 5.9376 11.3466C5.87894 11.4963 5.85187 11.6566 5.85807 11.8172C5.86428 11.9779 5.90363 12.1356 5.97366 12.2803C6.04369 12.425 6.14288 12.5537 6.26501 12.6583L9.00667 15.4117C9.11569 15.5198 9.24497 15.6053 9.38711 15.6634C9.52926 15.7215 9.68147 15.7509 9.83501 15.75C10.1411 15.7487 10.4344 15.6272 10.6517 15.4117L16.485 9.57833C16.5944 9.46988 16.6812 9.34084 16.7404 9.19867C16.7996 9.0565 16.8301 8.90401 16.8301 8.75C16.8301 8.59599 16.7996 8.4435 16.7404 8.30133C16.6812 8.15916 16.5944 8.03012 16.485 7.92167C16.2664 7.70437 15.9707 7.58241 15.6625 7.58241C15.3543 7.58241 15.0586 7.70437 14.84 7.92167ZM11.6667 0C9.35922 0 7.10359 0.684238 5.18502 1.96619C3.26645 3.24814 1.7711 5.07022 0.888077 7.20203C0.00505498 9.33383 -0.225984 11.6796 0.224177 13.9427C0.674338 16.2058 1.78548 18.2846 3.41709 19.9162C5.04871 21.5479 7.12751 22.659 9.39062 23.1092C11.6537 23.5593 13.9995 23.3283 16.1313 22.4453C18.2631 21.5622 20.0852 20.0669 21.3672 18.1483C22.6491 16.2297 23.3333 13.9741 23.3333 11.6667C23.3333 10.1346 23.0316 8.61749 22.4453 7.20203C21.859 5.78656 20.9996 4.50044 19.9163 3.41709C18.8329 2.33374 17.5468 1.47438 16.1313 0.888072C14.7158 0.301767 13.1988 0 11.6667 0V0ZM11.6667 21C9.82071 21 8.01621 20.4526 6.48135 19.4271C4.94649 18.4015 3.75021 16.9438 3.0438 15.2384C2.33738 13.5329 2.15255 11.6563 2.51268 9.84582C2.87281 8.03534 3.76172 6.37229 5.06701 5.067C6.3723 3.76171 8.03534 2.8728 9.84583 2.51267C11.6563 2.15254 13.5329 2.33737 15.2384 3.04379C16.9438 3.75021 18.4015 4.94649 19.4271 6.48134C20.4526 8.0162 21 9.82071 21 11.6667C21 14.142 20.0167 16.516 18.2663 18.2663C16.516 20.0167 14.142 21 11.6667 21V21Z" fill="#D6630A"/>
</svg>
