<svg width="28" height="28" viewBox="0 0 28 28" fill="none" xmlns="http://www.w3.org/2000/svg">
<path d="M21.3494 10.0217L22.411 8.97169C22.6307 8.752 22.7542 8.45404 22.7542 8.14335C22.7542 7.83267 22.6307 7.53471 22.411 7.31502C22.1914 7.09533 21.8934 6.97191 21.5827 6.97191C21.272 6.97191 20.9741 7.09533 20.7544 7.31502L19.7044 8.37669C18.0694 7.11185 16.0607 6.4256 13.9935 6.4256C11.9264 6.4256 9.91773 7.11185 8.28271 8.37669L7.22105 7.30335C6.99981 7.08367 6.70037 6.96086 6.38859 6.96196C6.07681 6.96305 5.77823 7.08795 5.55855 7.30919C5.33886 7.53042 5.21605 7.82987 5.21715 8.14165C5.21824 8.45342 5.34314 8.752 5.56438 8.97169L6.63771 10.0334C5.3579 11.6638 4.66347 13.6773 4.66605 15.75C4.66224 17.238 5.01425 18.7054 5.69274 20.0297C6.37123 21.354 7.35652 22.4969 8.56644 23.363C9.77636 24.2292 11.1758 24.7935 12.6482 25.0089C14.1205 25.2243 15.623 25.0846 17.0303 24.6014C18.4377 24.1182 19.7091 23.3055 20.7385 22.231C21.768 21.1566 22.5256 19.8516 22.9483 18.4249C23.3709 16.9982 23.4463 15.4911 23.1682 14.0294C22.8901 12.5676 22.2664 11.1935 21.3494 10.0217ZM13.9994 22.75C12.6149 22.75 11.2615 22.3395 10.1104 21.5703C8.95924 20.8011 8.06204 19.7079 7.53222 18.4288C7.00241 17.1497 6.86379 15.7423 7.13388 14.3844C7.40398 13.0265 8.07066 11.7792 9.04963 10.8003C10.0286 9.82131 11.2759 9.15462 12.6337 8.88452C13.9916 8.61443 15.3991 8.75305 16.6782 9.28286C17.9572 9.81268 19.0505 10.7099 19.8197 11.861C20.5888 13.0122 20.9994 14.3656 20.9994 15.75C20.9994 17.6065 20.2619 19.387 18.9491 20.6998C17.6364 22.0125 15.8559 22.75 13.9994 22.75ZM11.666 5.25002H16.3327C16.6421 5.25002 16.9389 5.1271 17.1577 4.90831C17.3765 4.68952 17.4994 4.39277 17.4994 4.08335C17.4994 3.77393 17.3765 3.47719 17.1577 3.2584C16.9389 3.0396 16.6421 2.91669 16.3327 2.91669H11.666C11.3566 2.91669 11.0599 3.0396 10.8411 3.2584C10.6223 3.47719 10.4994 3.77393 10.4994 4.08335C10.4994 4.39277 10.6223 4.68952 10.8411 4.90831C11.0599 5.1271 11.3566 5.25002 11.666 5.25002ZM15.166 12.25C15.166 11.9406 15.0431 11.6439 14.8243 11.4251C14.6055 11.2063 14.3088 11.0834 13.9994 11.0834C13.69 11.0834 13.3932 11.2063 13.1744 11.4251C12.9556 11.6439 12.8327 11.9406 12.8327 12.25V14.455C12.5685 14.6913 12.3823 15.0022 12.2988 15.3466C12.2152 15.6911 12.2381 16.0527 12.3646 16.3838C12.491 16.7149 12.7151 16.9998 13.007 17.2008C13.2989 17.4018 13.645 17.5094 13.9994 17.5094C14.3538 17.5094 14.6999 17.4018 14.9918 17.2008C15.2837 16.9998 15.5077 16.7149 15.6342 16.3838C15.7606 16.0527 15.7836 15.6911 15.7 15.3466C15.6164 15.0022 15.4302 14.6913 15.166 14.455V12.25Z" fill="#CC1B00"/>
</svg>
