<svg width="14" height="14" viewBox="0 0 14 14" fill="none" xmlns="http://www.w3.org/2000/svg">
<path d="M9.91732 5.24984V4.08317C9.91732 3.30962 9.61003 2.56776 9.06305 2.02078C8.51606 1.47379 7.7742 1.1665 7.00065 1.1665C6.2271 1.1665 5.48524 1.47379 4.93826 2.02078C4.39128 2.56776 4.08398 3.30962 4.08398 4.08317V5.24984C3.61986 5.24984 3.17474 5.43421 2.84655 5.7624C2.51836 6.09059 2.33398 6.53571 2.33398 6.99984V11.0832C2.33398 11.5473 2.51836 11.9924 2.84655 12.3206C3.17474 12.6488 3.61986 12.8332 4.08398 12.8332H9.91732C10.3814 12.8332 10.8266 12.6488 11.1548 12.3206C11.4829 11.9924 11.6673 11.5473 11.6673 11.0832V6.99984C11.6673 6.53571 11.4829 6.09059 11.1548 5.7624C10.8266 5.43421 10.3814 5.24984 9.91732 5.24984ZM5.25065 4.08317C5.25065 3.61904 5.43503 3.17392 5.76321 2.84573C6.0914 2.51755 6.53652 2.33317 7.00065 2.33317C7.46478 2.33317 7.9099 2.51755 8.23809 2.84573C8.56628 3.17392 8.75065 3.61904 8.75065 4.08317V5.24984H5.25065V4.08317ZM10.5007 11.0832C10.5007 11.2379 10.4392 11.3863 10.3298 11.4957C10.2204 11.605 10.072 11.6665 9.91732 11.6665H4.08398C3.92927 11.6665 3.7809 11.605 3.67151 11.4957C3.56211 11.3863 3.50065 11.2379 3.50065 11.0832V6.99984C3.50065 6.84513 3.56211 6.69675 3.67151 6.58736C3.7809 6.47796 3.92927 6.4165 4.08398 6.4165H9.91732C10.072 6.4165 10.2204 6.47796 10.3298 6.58736C10.4392 6.69675 10.5007 6.84513 10.5007 6.99984V11.0832Z" fill="#9FA6BC"/>
</svg>
