<svg width="28" height="28" viewBox="0 0 28 28" fill="none" xmlns="http://www.w3.org/2000/svg">
<path d="M19.9376 3.28988C18.8646 2.40739 17.6082 1.77558 16.2599 1.44053C14.9116 1.10548 13.5055 1.07565 12.1443 1.35321C10.3317 1.71934 8.66877 2.61563 7.36641 3.92837C6.06406 5.24111 5.181 6.91113 4.82928 8.72654C4.57244 10.0877 4.61911 11.4888 4.96597 12.8299C5.31283 14.1709 5.95134 15.4189 6.83595 16.4849C7.65691 17.4113 8.12749 18.596 8.16595 19.8332V23.3332C8.16595 24.2615 8.5347 25.1517 9.19107 25.8081C9.84745 26.4645 10.7377 26.8332 11.6659 26.8332H16.3326C17.2609 26.8332 18.1511 26.4645 18.8075 25.8081C19.4639 25.1517 19.8326 24.2615 19.8326 23.3332V20.0549C19.8718 18.6889 20.3736 17.3767 21.2559 16.3332C22.8019 14.4208 23.5307 11.9755 23.2838 9.52877C23.037 7.08205 21.8344 4.83161 19.9376 3.26654V3.28988ZM17.4993 23.3332C17.4993 23.6426 17.3764 23.9394 17.1576 24.1582C16.9388 24.377 16.642 24.4999 16.3326 24.4999H11.6659C11.3565 24.4999 11.0598 24.377 10.841 24.1582C10.6222 23.9394 10.4993 23.6426 10.4993 23.3332V22.1665H17.4993V23.3332ZM19.4476 14.8865C18.2745 16.2779 17.5901 18.0156 17.4993 19.8332H15.1659V16.3332C15.1659 16.0238 15.043 15.727 14.8242 15.5083C14.6054 15.2895 14.3087 15.1665 13.9993 15.1665C13.6899 15.1665 13.3931 15.2895 13.1743 15.5083C12.9555 15.727 12.8326 16.0238 12.8326 16.3332V19.8332H10.4993C10.4685 18.046 9.80738 16.3271 8.63261 14.9799C7.85753 14.0512 7.33632 12.9375 7.11981 11.7474C6.9033 10.5574 6.99887 9.33148 7.39722 8.18933C7.79556 7.04718 8.48307 6.02774 9.39272 5.23042C10.3024 4.4331 11.4031 3.88511 12.5876 3.63988C13.6056 3.43028 14.6575 3.44999 15.6669 3.69759C16.6763 3.94519 17.6179 4.41446 18.4233 5.07132C19.2288 5.72819 19.8778 6.55617 20.3234 7.49515C20.769 8.43413 20.9998 9.46055 20.9993 10.4999C21.0079 12.0981 20.4592 13.6493 19.4476 14.8865V14.8865Z" fill="#D6630A"/>
</svg>
