<svg width="30" height="30" viewBox="0 0 30 30" fill="none" xmlns="http://www.w3.org/2000/svg">
<path d="M27.1006 22.0623L18.3506 4.56233C18.0384 3.94158 17.5598 3.41981 16.9682 3.05521C16.3767 2.69062 15.6955 2.49756 15.0006 2.49756C14.3058 2.49756 13.6246 2.69062 13.033 3.05521C12.4415 3.41981 11.9629 3.94158 11.6506 4.56233L2.90065 22.0623C2.55691 22.7529 2.43454 23.5328 2.55021 24.2955C2.66589 25.0582 3.01399 25.7667 3.54704 26.3244C4.0801 26.882 4.77217 27.2617 5.52891 27.4117C6.28564 27.5616 7.07021 27.4745 7.77564 27.1623L14.4881 24.1623C14.6504 24.0942 14.8246 24.0592 15.0006 24.0592C15.1766 24.0592 15.3508 24.0942 15.5131 24.1623L22.2256 27.1623C22.9311 27.4745 23.7156 27.5616 24.4724 27.4117C25.2291 27.2617 25.9212 26.882 26.4542 26.3244C26.9873 25.7667 27.3354 25.0582 27.4511 24.2955C27.5667 23.5328 27.4444 22.7529 27.1006 22.0623ZM24.6006 24.5623C24.4222 24.7481 24.1908 24.8742 23.9379 24.9234C23.6851 24.9727 23.4232 24.9426 23.1881 24.8373L16.4756 21.8498C15.9956 21.6361 15.4761 21.5257 14.9506 21.5257C14.4252 21.5257 13.9057 21.6361 13.4256 21.8498L6.76314 24.8748C6.52935 24.9764 6.27008 25.0041 6.02011 24.9541C5.77013 24.9042 5.5414 24.779 5.36458 24.5954C5.18776 24.4118 5.07131 24.1785 5.03084 23.9268C4.99036 23.6751 5.02781 23.4171 5.13815 23.1873L13.8881 5.68733C13.993 5.48257 14.1524 5.31074 14.3487 5.19075C14.545 5.07077 14.7706 5.00728 15.0006 5.00728C15.2307 5.00728 15.4563 5.07077 15.6526 5.19075C15.8489 5.31074 16.0082 5.48257 16.1131 5.68733L24.8631 23.1873C24.9762 23.4163 25.0165 23.6744 24.9785 23.9269C24.9405 24.1794 24.8261 24.4143 24.6506 24.5998L24.6006 24.5623Z" fill="#3E465B"/>
</svg>
