<svg width="20" height="15" viewBox="0 0 20 15" fill="none" xmlns="http://www.w3.org/2000/svg">
<path d="M19.4535 0.419047C19.3218 0.286265 19.1651 0.180873 18.9925 0.108951C18.8199 0.0370288 18.6347 0 18.4477 0C18.2607 0 18.0755 0.0370288 17.9029 0.108951C17.7302 0.180873 17.5735 0.286265 17.4419 0.419047L6.88771 10.9874L2.45355 6.53903C2.31681 6.40694 2.1554 6.30308 1.97852 6.23338C1.80164 6.16367 1.61277 6.12949 1.42268 6.13278C1.23259 6.13607 1.04501 6.17676 0.870648 6.25255C0.696287 6.32833 0.53856 6.43771 0.406472 6.57445C0.274385 6.71119 0.170524 6.8726 0.100818 7.04948C0.0311127 7.22636 -0.0030721 7.41523 0.000216634 7.60532C0.00350537 7.79541 0.044203 7.98299 0.119985 8.15735C0.195768 8.33171 0.30515 8.48944 0.441889 8.62153L5.88188 14.0615C6.01357 14.1943 6.17026 14.2997 6.34289 14.3716C6.51553 14.4435 6.70069 14.4806 6.88771 14.4806C7.07473 14.4806 7.25989 14.4435 7.43252 14.3716C7.60516 14.2997 7.76184 14.1943 7.89354 14.0615L19.4535 2.50154C19.5973 2.36888 19.7121 2.20788 19.7906 2.02867C19.8691 1.84946 19.9096 1.65594 19.9096 1.46029C19.9096 1.26465 19.8691 1.07113 19.7906 0.89192C19.7121 0.712713 19.5973 0.551706 19.4535 0.419047V0.419047Z" fill="black" fill-opacity="0.55"/>
</svg>
