<svg width="28" height="28" viewBox="0 0 28 28" fill="none" xmlns="http://www.w3.org/2000/svg">
<path d="M16.6855 13.5092L26.3605 3.85671C26.7842 3.43302 27.0223 2.85839 27.0223 2.25921C27.0223 1.66003 26.7842 1.08539 26.3605 0.661706C25.9369 0.238023 25.3622 0 24.763 0C24.1639 0 23.5892 0.238023 23.1655 0.661706L13.513 10.3367L3.86055 0.661706C3.43686 0.238023 2.86223 -4.46423e-09 2.26305 0C1.66387 4.46423e-09 1.08923 0.238023 0.665546 0.661706C0.241863 1.08539 0.00383985 1.66003 0.00383985 2.25921C0.00383985 2.85839 0.241863 3.43302 0.665546 3.85671L10.3405 13.5092L0.665546 23.1617C0.454657 23.3709 0.287271 23.6197 0.173041 23.8939C0.0588116 24.1681 0 24.4622 0 24.7592C0 25.0562 0.0588116 25.3503 0.173041 25.6245C0.287271 25.8987 0.454657 26.1475 0.665546 26.3567C0.874713 26.5676 1.12357 26.735 1.39775 26.8492C1.67193 26.9634 1.96602 27.0223 2.26305 27.0223C2.56007 27.0223 2.85416 26.9634 3.12834 26.8492C3.40253 26.735 3.65138 26.5676 3.86055 26.3567L13.513 16.6817L23.1655 26.3567C23.3747 26.5676 23.6236 26.735 23.8977 26.8492C24.1719 26.9634 24.466 27.0223 24.763 27.0223C25.0601 27.0223 25.3542 26.9634 25.6283 26.8492C25.9025 26.735 26.1514 26.5676 26.3605 26.3567C26.5714 26.1475 26.7388 25.8987 26.8531 25.6245C26.9673 25.3503 27.0261 25.0562 27.0261 24.7592C27.0261 24.4622 26.9673 24.1681 26.8531 23.8939C26.7388 23.6197 26.5714 23.3709 26.3605 23.1617L16.6855 13.5092Z" fill="#CC1B00"/>
</svg>
