<svg width="11" height="17" viewBox="0 0 11 17" fill="none" xmlns="http://www.w3.org/2000/svg">
<path d="M9.3062 8.54062C10.1819 7.46248 10.5946 6.08127 10.454 4.69946C10.3134 3.31765 9.63103 2.04785 8.5562 1.16812C7.94041 0.674611 7.2225 0.324346 6.45454 0.142733C5.68658 -0.0388796 4.88782 -0.0472867 4.1162 0.118122C3.24984 0.309744 2.44618 0.71782 1.78029 1.30423C1.11439 1.89065 0.607985 2.63627 0.308368 3.47145C0.00875097 4.30663 -0.0743008 5.20413 0.0669697 6.08011C0.20824 6.95609 0.569224 7.78197 1.1162 8.48062C1.61471 9.08711 1.8994 9.84101 1.9262 10.6256V10.8431C1.64082 11.1188 1.47632 11.4964 1.4687 11.8931V13.3931C1.4687 13.7909 1.62674 14.1725 1.90804 14.4538C2.18935 14.7351 2.57088 14.8931 2.9687 14.8931V15.6431C2.9687 15.842 3.04772 16.0328 3.18837 16.1735C3.32903 16.3141 3.51979 16.3931 3.7187 16.3931C3.91762 16.3931 4.10838 16.3141 4.24903 16.1735C4.38969 16.0328 4.4687 15.842 4.4687 15.6431V14.8931H5.9687V15.6431C5.9687 15.842 6.04772 16.0328 6.18837 16.1735C6.32903 16.3141 6.51979 16.3931 6.7187 16.3931C6.91762 16.3931 7.10838 16.3141 7.24903 16.1735C7.38969 16.0328 7.4687 15.842 7.4687 15.6431V14.8931C7.86653 14.8931 8.24806 14.7351 8.52936 14.4538C8.81067 14.1725 8.9687 13.7909 8.9687 13.3931V11.8931C8.96905 11.5007 8.81557 11.1237 8.5412 10.8431V10.5206C8.5631 9.79273 8.83301 9.09415 9.3062 8.54062V8.54062ZM2.9687 13.3931V11.8931H7.4687V13.3931H2.9687ZM8.1362 7.60312C7.47229 8.38619 7.08714 9.36752 7.0412 10.3931H3.3887C3.31796 9.35405 2.92467 8.36297 2.2637 7.55812C1.86666 7.05985 1.60312 6.46862 1.49794 5.84025C1.39276 5.21187 1.44942 4.56705 1.66256 3.96664C1.87571 3.36623 2.23832 2.83003 2.71617 2.40863C3.19402 1.98722 3.77135 1.69451 4.3937 1.55812C4.9451 1.43375 5.51748 1.43563 6.06805 1.56364C6.61862 1.69164 7.13312 1.94245 7.5731 2.29732C8.01307 2.65218 8.36714 3.10192 8.60881 3.6129C8.85048 4.12389 8.97351 4.68289 8.9687 5.24812C8.97341 6.10603 8.67903 6.93877 8.1362 7.60312Z" fill="#25B003"/>
</svg>
