<svg width="28" height="28" viewBox="0 0 28 28" fill="none" xmlns="http://www.w3.org/2000/svg">
<path d="M9.54399 4.66665H11.994C12.3034 4.66665 12.6002 4.54373 12.8189 4.32494C13.0377 4.10615 13.1607 3.8094 13.1607 3.49998C13.1607 3.19056 13.0377 2.89381 12.8189 2.67502C12.6002 2.45623 12.3034 2.33331 11.994 2.33331H9.54399C9.23457 2.33331 8.93782 2.45623 8.71903 2.67502C8.50023 2.89381 8.37732 3.19056 8.37732 3.49998C8.37732 3.8094 8.50023 4.10615 8.71903 4.32494C8.93782 4.54373 9.23457 4.66665 9.54399 4.66665ZM3.50065 13.16C3.81007 13.16 4.10682 13.0371 4.32561 12.8183C4.5444 12.5995 4.66732 12.3027 4.66732 11.9933V9.54331C4.66732 9.23389 4.5444 8.93715 4.32561 8.71836C4.10682 8.49956 3.81007 8.37665 3.50065 8.37665C3.19123 8.37665 2.89449 8.49956 2.67569 8.71836C2.4569 8.93715 2.33398 9.23389 2.33398 9.54331V11.9933C2.33398 12.3027 2.4569 12.5995 2.67569 12.8183C2.89449 13.0371 3.19123 13.16 3.50065 13.16ZM16.8707 4.66665C16.8707 4.97607 16.9936 5.27281 17.2124 5.4916C17.4312 5.7104 17.7279 5.83331 18.0373 5.83331C18.3467 5.83331 18.6435 5.7104 18.8623 5.4916C19.0811 5.27281 19.204 4.97607 19.204 4.66665V3.49998C19.204 3.19056 19.0811 2.89381 18.8623 2.67502C18.6435 2.45623 18.3467 2.33331 18.0373 2.33331H16.8707C16.5612 2.33331 16.2645 2.45623 16.0457 2.67502C15.8269 2.89381 15.704 3.19056 15.704 3.49998C15.704 3.8094 15.8269 4.10615 16.0457 4.32494C16.2645 4.54373 16.5612 4.66665 16.8707 4.66665ZM24.5007 8.79665H19.204C19.204 8.48723 19.0811 8.19048 18.8623 7.97169C18.6435 7.7529 18.3467 7.62998 18.0373 7.62998C17.7279 7.62998 17.4312 7.7529 17.2124 7.97169C16.9936 8.19048 16.8707 8.48723 16.8707 8.79665H9.96398C9.65457 8.79665 9.35782 8.91956 9.13903 9.13836C8.92023 9.35715 8.79732 9.65389 8.79732 9.96331V16.87C8.4879 16.87 8.19115 16.9929 7.97236 17.2117C7.75357 17.4305 7.63065 17.7272 7.63065 18.0366C7.63065 18.3461 7.75357 18.6428 7.97236 18.8616C8.19115 19.0804 8.4879 19.2033 8.79732 19.2033V24.5C8.79732 24.8094 8.92023 25.1061 9.13903 25.3249C9.35782 25.5437 9.65457 25.6666 9.96398 25.6666H24.5007C24.8101 25.6666 25.1068 25.5437 25.3256 25.3249C25.5444 25.1061 25.6673 24.8094 25.6673 24.5V9.96331C25.6673 9.65389 25.5444 9.35715 25.3256 9.13836C25.1068 8.91956 24.8101 8.79665 24.5007 8.79665ZM23.334 23.3333H11.1307V18.0483V11.13H23.334V23.3333ZM4.66732 2.33331H3.50065C3.19123 2.33331 2.89449 2.45623 2.67569 2.67502C2.4569 2.89381 2.33398 3.19056 2.33398 3.49998V4.66665C2.33398 4.97607 2.4569 5.27281 2.67569 5.4916C2.89449 5.7104 3.19123 5.83331 3.50065 5.83331C3.81007 5.83331 4.10682 5.7104 4.32561 5.4916C4.5444 5.27281 4.66732 4.97607 4.66732 4.66665C4.97674 4.66665 5.27348 4.54373 5.49228 4.32494C5.71107 4.10615 5.83398 3.8094 5.83398 3.49998C5.83398 3.19056 5.71107 2.89381 5.49228 2.67502C5.27348 2.45623 4.97674 2.33331 4.66732 2.33331ZM4.66732 16.87C4.66732 16.5606 4.5444 16.2638 4.32561 16.045C4.10682 15.8262 3.81007 15.7033 3.50065 15.7033C3.19123 15.7033 2.89449 15.8262 2.67569 16.045C2.4569 16.2638 2.33398 16.5606 2.33398 16.87V18.0366C2.33398 18.3461 2.4569 18.6428 2.67569 18.8616C2.89449 19.0804 3.19123 19.2033 3.50065 19.2033H4.66732C4.97674 19.2033 5.27348 19.0804 5.49228 18.8616C5.71107 18.6428 5.83398 18.3461 5.83398 18.0366C5.83398 17.7272 5.71107 17.4305 5.49228 17.2117C5.27348 16.9929 4.97674 16.87 4.66732 16.87Z" fill="#004DFF"/>
</svg>
