<svg width="28" height="28" viewBox="0 0 28 28" fill="none" xmlns="http://www.w3.org/2000/svg">
<path d="M24.5007 12.8333C24.1912 12.8333 23.8945 12.9562 23.6757 13.175C23.4569 13.3938 23.334 13.6905 23.334 13.9999C23.3479 16.1851 22.5993 18.3068 21.2173 19.9994C19.8352 21.6921 17.9061 22.8499 15.7623 23.2733C13.6184 23.6967 11.3941 23.3593 9.47224 22.3192C7.55042 21.279 6.05146 19.6013 5.23353 17.5749C4.4156 15.5485 4.32991 13.3003 4.99121 11.2175C5.65251 9.13473 7.0194 7.34774 8.85647 6.16433C10.6935 4.98091 12.8858 4.47515 15.0556 4.73415C17.2255 4.99315 19.2371 6.00069 20.744 7.58325H17.944C17.6346 7.58325 17.3378 7.70617 17.119 7.92496C16.9002 8.14375 16.7773 8.4405 16.7773 8.74992C16.7773 9.05934 16.9002 9.35608 17.119 9.57488C17.3378 9.79367 17.6346 9.91659 17.944 9.91659H23.229C23.5384 9.91659 23.8352 9.79367 24.0539 9.57488C24.2727 9.35608 24.3957 9.05934 24.3957 8.74992V3.49992C24.3957 3.1905 24.2727 2.89375 24.0539 2.67496C23.8352 2.45617 23.5384 2.33325 23.229 2.33325C22.9196 2.33325 22.6228 2.45617 22.404 2.67496C22.1852 2.89375 22.0623 3.1905 22.0623 3.49992V5.56492C20.1194 3.70765 17.5949 2.5782 14.9153 2.36747C12.2358 2.15674 9.56572 2.87767 7.35639 4.40839C5.14707 5.93911 3.53403 8.18573 2.78995 10.7685C2.04588 13.3512 2.2164 16.1117 3.2727 18.5832C4.329 21.0547 6.20627 23.0857 8.5872 24.3329C10.9681 25.5801 13.7067 25.9669 16.3399 25.428C18.9731 24.8891 21.3395 23.4575 23.039 21.3752C24.7385 19.2929 25.6669 16.6877 25.6673 13.9999C25.6673 13.6905 25.5444 13.3938 25.3256 13.175C25.1068 12.9562 24.8101 12.8333 24.5007 12.8333Z" fill="#004DFF"/>
</svg>
