<svg width="30" height="30" viewBox="0 0 30 30" fill="none" xmlns="http://www.w3.org/2000/svg">
<path d="M26.25 13.7499C25.9185 13.7499 25.6005 13.8816 25.3661 14.116C25.1317 14.3504 25 14.6683 25 14.9999C25.0149 17.3411 24.2128 19.6143 22.7321 21.4279C21.2513 23.2415 19.1844 24.4819 16.8874 24.9356C14.5905 25.3893 12.2072 25.0278 10.1481 23.9133C8.08903 22.7989 6.483 21.0013 5.60665 18.8302C4.7303 16.659 4.63849 14.2503 5.34702 12.0187C6.05556 9.78716 7.52009 7.87254 9.48837 6.6046C11.4567 5.33665 13.8055 4.79477 16.1303 5.07226C18.4551 5.34976 20.6104 6.42927 22.225 8.12487H19.225C18.8935 8.12487 18.5755 8.25657 18.3411 8.49099C18.1067 8.72541 17.975 9.04335 17.975 9.37487C17.975 9.70639 18.1067 10.0243 18.3411 10.2588C18.5755 10.4932 18.8935 10.6249 19.225 10.6249H24.8875C25.219 10.6249 25.5369 10.4932 25.7714 10.2588C26.0058 10.0243 26.1375 9.70639 26.1375 9.37487V3.74988C26.1375 3.41836 26.0058 3.10041 25.7714 2.86599C25.5369 2.63157 25.219 2.49988 24.8875 2.49988C24.556 2.49988 24.238 2.63157 24.0036 2.86599C23.7692 3.10041 23.6375 3.41836 23.6375 3.74988V5.96237C21.5558 3.97245 18.8509 2.76232 15.98 2.53654C13.1091 2.31076 10.2483 3.08318 7.88115 4.72324C5.51401 6.36329 3.78576 8.77038 2.98854 11.5376C2.19131 14.3048 2.37402 17.2625 3.50576 19.9105C4.63751 22.5586 6.64888 24.7347 9.19987 26.0709C11.7509 27.4072 14.685 27.8216 17.5063 27.2442C20.3276 26.6668 22.863 25.1329 24.6839 22.9019C26.5048 20.6709 27.4996 17.8796 27.5 14.9999C27.5 14.6683 27.3683 14.3504 27.1339 14.116C26.8994 13.8816 26.5815 13.7499 26.25 13.7499Z" fill="#3E465B"/>
</svg>
