<svg width="32" height="23" viewBox="0 0 32 23" fill="none" xmlns="http://www.w3.org/2000/svg">
<path d="M30.8968 0.665546C30.6877 0.454657 30.4388 0.28727 30.1646 0.17304C29.8904 0.0588105 29.5964 0 29.2993 0C29.0023 0 28.7082 0.0588105 28.434 0.17304C28.1598 0.28727 27.911 0.454657 27.7018 0.665546L10.9393 17.4505L3.89683 10.3855C3.67965 10.1758 3.42328 10.0108 3.14236 9.90009C2.86144 9.78938 2.56146 9.73509 2.25955 9.74032C1.95764 9.74554 1.65972 9.81018 1.3828 9.93054C1.10587 10.0509 0.855362 10.2246 0.645575 10.4418C0.435788 10.659 0.270832 10.9153 0.160123 11.1963C0.0494143 11.4772 -0.00487923 11.7772 0.000344066 12.0791C0.00556736 12.381 0.0702049 12.6789 0.190565 12.9558C0.310926 13.2328 0.484652 13.4833 0.701825 13.693L9.34183 22.333C9.55099 22.5439 9.79985 22.7113 10.074 22.8256C10.3482 22.9398 10.6423 22.9986 10.9393 22.9986C11.2364 22.9986 11.5304 22.9398 11.8046 22.8256C12.0788 22.7113 12.3277 22.5439 12.5368 22.333L30.8968 3.97305C31.1252 3.76235 31.3075 3.50664 31.4321 3.22201C31.5568 2.93739 31.6212 2.63003 31.6212 2.3193C31.6212 2.00857 31.5568 1.70121 31.4321 1.41658C31.3075 1.13196 31.1252 0.876241 30.8968 0.665546V0.665546Z" fill="#23890B"/>
</svg>
