<svg width="28" height="28" viewBox="0 0 28 28" fill="none" xmlns="http://www.w3.org/2000/svg">
<path d="M24.6988 2.40331C23.8626 2.25927 23.0158 2.18512 22.1672 2.18165C19.2719 2.17927 16.4371 3.00948 14.0005 4.57331C11.5577 3.03001 8.72327 2.22018 5.83384 2.23998C4.98526 2.24346 4.13844 2.3176 3.30217 2.46165C3.02825 2.50887 2.78018 2.65235 2.60265 2.86624C2.42513 3.08013 2.3298 3.35037 2.33384 3.62831V17.6283C2.33134 17.7997 2.36665 17.9696 2.43726 18.1258C2.50788 18.2821 2.61205 18.4208 2.74237 18.5322C2.8727 18.6436 3.02597 18.7249 3.19129 18.7703C3.3566 18.8157 3.5299 18.8241 3.69884 18.795C5.37069 18.5055 7.08357 18.5535 8.73658 18.9362C10.3896 19.3189 11.9493 20.0286 13.3238 21.0233L13.4638 21.105H13.5922C13.7216 21.1589 13.8603 21.1866 14.0005 21.1866C14.1407 21.1866 14.2795 21.1589 14.4088 21.105H14.5372L14.6772 21.0233C16.0421 20.0063 17.5974 19.2737 19.2507 18.8689C20.904 18.4641 22.6218 18.3953 24.3022 18.6666C24.4711 18.6958 24.6444 18.6874 24.8097 18.642C24.975 18.5965 25.1283 18.5152 25.2586 18.4039C25.389 18.2925 25.4931 18.1537 25.5637 17.9975C25.6344 17.8413 25.6697 17.6714 25.6672 17.5V3.49998C25.655 3.23416 25.5524 2.98047 25.3763 2.78101C25.2001 2.58154 24.9611 2.44827 24.6988 2.40331ZM12.8338 17.9083C10.6754 16.7728 8.27278 16.1801 5.83384 16.1816C5.44884 16.1816 5.06384 16.1816 4.66717 16.1816V4.51498C5.05574 4.49258 5.44527 4.49258 5.83384 4.51498C8.32279 4.51223 10.7574 5.24262 12.8338 6.61498V17.9083ZM23.3338 16.2283C22.9372 16.2283 22.5522 16.2283 22.1672 16.2283C19.7282 16.2268 17.3256 16.8194 15.1672 17.955V6.61498C17.2436 5.24262 19.6782 4.51223 22.1672 4.51498C22.5557 4.49258 22.9453 4.49258 23.3338 4.51498V16.2283ZM24.6988 21.07C23.8626 20.9259 23.0158 20.8518 22.1672 20.8483C19.2719 20.8459 16.4371 21.6761 14.0005 23.24C11.5639 21.6761 8.72908 20.8459 5.83384 20.8483C4.98526 20.8518 4.13844 20.9259 3.30217 21.07C3.1503 21.0941 3.0047 21.148 2.87373 21.2285C2.74276 21.3091 2.62901 21.4148 2.53902 21.5395C2.44903 21.6641 2.38457 21.8054 2.34936 21.9551C2.31415 22.1048 2.30887 22.2599 2.33384 22.4116C2.39313 22.7146 2.57008 22.9817 2.82593 23.1545C3.08178 23.3272 3.39567 23.3915 3.69884 23.3333C5.37069 23.0438 7.08357 23.0919 8.73658 23.4746C10.3896 23.8573 11.9493 24.5669 13.3238 25.5616C13.5214 25.7023 13.758 25.7779 14.0005 25.7779C14.2431 25.7779 14.4796 25.7023 14.6772 25.5616C16.0517 24.5669 17.6114 23.8573 19.2644 23.4746C20.9174 23.0919 22.6303 23.0438 24.3022 23.3333C24.6053 23.3915 24.9192 23.3272 25.1751 23.1545C25.4309 22.9817 25.6079 22.7146 25.6672 22.4116C25.6921 22.2599 25.6869 22.1048 25.6517 21.9551C25.6164 21.8054 25.552 21.6641 25.462 21.5395C25.372 21.4148 25.2583 21.3091 25.1273 21.2285C24.9963 21.148 24.8507 21.0941 24.6988 21.07V21.07Z" fill="#23890B"/>
</svg>
