<svg width="9" height="6" viewBox="0 0 9 6" fill="none" xmlns="http://www.w3.org/2000/svg">
<path d="M8.01029 0.172549C7.95606 0.117874 7.89154 0.0744773 7.82046 0.0448622C7.74937 0.0152472 7.67313 0 7.59612 0C7.51911 0 7.44287 0.0152472 7.37178 0.0448622C7.3007 0.0744773 7.23618 0.117874 7.18195 0.172549L2.83612 4.52422L1.01029 2.69255C0.953984 2.63816 0.887518 2.59539 0.814686 2.56669C0.741854 2.53799 0.664081 2.52391 0.585809 2.52527C0.507537 2.52662 0.430299 2.54338 0.358503 2.57458C0.286707 2.60579 0.22176 2.65083 0.167371 2.70713C0.112982 2.76344 0.0702157 2.8299 0.0415134 2.90273C0.0128111 2.97557 -0.00126499 3.05334 8.92024e-05 3.13161C0.00144339 3.20988 0.0182013 3.28712 0.0494058 3.35892C0.0806103 3.43071 0.12565 3.49566 0.181955 3.55005L2.42195 5.79005C2.47618 5.84472 2.5407 5.88812 2.61178 5.91774C2.68287 5.94735 2.75911 5.9626 2.83612 5.9626C2.91313 5.9626 2.98937 5.94735 3.06046 5.91774C3.13154 5.88812 3.19606 5.84472 3.25029 5.79005L8.01029 1.03005C8.0695 0.975424 8.11675 0.909128 8.14907 0.835336C8.1814 0.761545 8.19808 0.681858 8.19808 0.601299C8.19808 0.52074 8.1814 0.441053 8.14907 0.367262C8.11675 0.293471 8.0695 0.227174 8.01029 0.172549Z" fill="#23890B"/>
</svg>
