<svg width="40" height="40" viewBox="0 0 40 40" fill="none" xmlns="http://www.w3.org/2000/svg">
<rect width="40" height="40" rx="20" fill="#FA3B1D"/>
<path d="M21.8799 20.0001L27.6133 14.2801C27.8643 14.029 28.0054 13.6885 28.0054 13.3334C28.0054 12.9783 27.8643 12.6378 27.6133 12.3868C27.3622 12.1357 27.0217 11.9946 26.6666 11.9946C26.3115 11.9946 25.971 12.1357 25.7199 12.3868L19.9999 18.1201L14.2799 12.3868C14.0288 12.1357 13.6883 11.9946 13.3333 11.9946C12.9782 11.9946 12.6377 12.1357 12.3866 12.3868C12.1355 12.6378 11.9945 12.9783 11.9945 13.3334C11.9945 13.6885 12.1355 14.029 12.3866 14.2801L18.1199 20.0001L12.3866 25.7201C12.2616 25.844 12.1624 25.9915 12.0947 26.154C12.027 26.3165 11.9922 26.4907 11.9922 26.6667C11.9922 26.8428 12.027 27.017 12.0947 27.1795C12.1624 27.342 12.2616 27.4895 12.3866 27.6134C12.5105 27.7384 12.658 27.8376 12.8205 27.9053C12.983 27.973 13.1572 28.0078 13.3333 28.0078C13.5093 28.0078 13.6835 27.973 13.846 27.9053C14.0085 27.8376 14.156 27.7384 14.2799 27.6134L19.9999 21.8801L25.7199 27.6134C25.8439 27.7384 25.9913 27.8376 26.1538 27.9053C26.3163 27.973 26.4906 28.0078 26.6666 28.0078C26.8426 28.0078 27.0169 27.973 27.1794 27.9053C27.3418 27.8376 27.4893 27.7384 27.6133 27.6134C27.7382 27.4895 27.8374 27.342 27.9051 27.1795C27.9728 27.017 28.0077 26.8428 28.0077 26.6667C28.0077 26.4907 27.9728 26.3165 27.9051 26.154C27.8374 25.9915 27.7382 25.844 27.6133 25.7201L21.8799 20.0001Z" fill="white"/>
</svg>
