<svg width="28" height="28" viewBox="0 0 28 28" fill="none" xmlns="http://www.w3.org/2000/svg">
<path d="M24.3491 20.125L21.1874 14.665C21.8344 13.4768 22.1714 12.1446 22.1674 10.7917C22.1674 8.62573 21.307 6.54851 19.7754 5.01696C18.2439 3.48541 16.1667 2.625 14.0007 2.625C11.8348 2.625 9.75758 3.48541 8.22603 5.01696C6.69448 6.54851 5.83407 8.62573 5.83407 10.7917C5.83005 12.1446 6.1671 13.4768 6.81407 14.665L3.6524 20.125C3.54981 20.3027 3.49589 20.5043 3.49609 20.7095C3.4963 20.9147 3.55061 21.1162 3.65356 21.2937C3.7565 21.4712 3.90444 21.6184 4.08244 21.7204C4.26045 21.8225 4.46222 21.8758 4.6674 21.875H8.01574L9.71907 24.745C9.77649 24.8401 9.84721 24.9265 9.92907 25.0017C10.1453 25.2101 10.4337 25.3271 10.7341 25.3283H10.8974C11.0735 25.3042 11.2418 25.2402 11.3894 25.1411C11.537 25.042 11.66 24.9105 11.7491 24.7567L14.0007 20.8833L16.2524 24.7917C16.3427 24.9434 16.4663 25.0726 16.6138 25.1696C16.7614 25.2666 16.929 25.3289 17.1041 25.3517H17.2674C17.5718 25.3535 17.8649 25.2363 18.0841 25.025C18.1625 24.9542 18.2295 24.8715 18.2824 24.78L19.9857 21.91H23.3341C23.5396 21.9108 23.7418 21.8573 23.92 21.7549C24.0983 21.6524 24.2463 21.5047 24.3491 21.3267C24.4581 21.1452 24.5157 20.9375 24.5157 20.7258C24.5157 20.5141 24.4581 20.3065 24.3491 20.125ZM10.7224 21.91L9.68407 20.1717C9.58183 19.9992 9.43686 19.856 9.26316 19.7559C9.08946 19.6557 8.89289 19.602 8.6924 19.6H6.67407L8.3424 16.7067C9.49125 17.8137 10.9392 18.56 12.5074 18.8533L10.7224 21.91ZM14.0007 16.625C12.847 16.625 11.7192 16.2829 10.7599 15.6419C9.80062 15.0009 9.05295 14.0899 8.61144 13.024C8.16993 11.9581 8.05441 10.7852 8.27949 9.65364C8.50457 8.52208 9.06014 7.48268 9.87595 6.66688C10.6918 5.85107 11.7312 5.2955 12.8627 5.07042C13.9943 4.84534 15.1672 4.96086 16.2331 5.40237C17.299 5.84388 18.21 6.59155 18.851 7.55084C19.492 8.51013 19.8341 9.63794 19.8341 10.7917C19.8341 12.3388 19.2195 13.8225 18.1255 14.9165C17.0316 16.0104 15.5478 16.625 14.0007 16.625ZM19.3091 19.6C19.1086 19.602 18.912 19.6557 18.7383 19.7559C18.5646 19.856 18.4196 19.9992 18.3174 20.1717L17.2791 21.91L15.5057 18.8183C17.0685 18.519 18.511 17.7734 19.6591 16.6717L21.3274 19.565L19.3091 19.6Z" fill="#23890B"/>
</svg>
