<svg width="28" height="28" viewBox="0 0 28 28" fill="none" xmlns="http://www.w3.org/2000/svg">
<path d="M15.8673 12.7168C15.984 12.8335 16.1007 12.8335 16.334 12.8335H24.5007C25.2007 12.8335 25.6673 12.3668 25.6673 11.6668C25.6673 11.4335 25.6673 11.3168 25.5507 11.2002L21.4673 3.0335C21.1173 2.45016 20.4173 2.21683 19.834 2.56683C19.7173 2.6835 19.484 2.80016 19.3673 3.0335L15.284 11.2002C15.0507 11.6668 15.284 12.3668 15.8673 12.7168ZM20.4173 6.06683L22.634 10.5002H18.2007L20.4173 6.06683ZM7.58398 2.3335C4.66732 2.3335 2.33398 4.66683 2.33398 7.5835C2.33398 10.5002 4.66732 12.8335 7.58398 12.8335C10.5007 12.8335 12.834 10.5002 12.834 7.5835C12.834 4.66683 10.5007 2.3335 7.58398 2.3335ZM7.58398 10.5002C5.95065 10.5002 4.66732 9.21683 4.66732 7.5835C4.66732 5.95016 5.95065 4.66683 7.58398 4.66683C9.21732 4.66683 10.5007 5.95016 10.5007 7.5835C10.5007 9.21683 9.21732 10.5002 7.58398 10.5002ZM12.484 15.5168C12.0173 15.0502 11.3173 15.0502 10.8507 15.5168L7.58398 18.7835L4.31732 15.5168C3.85065 15.0502 3.15065 15.0502 2.68398 15.5168C2.21732 15.9835 2.21732 16.6835 2.68398 17.1502L5.95065 20.4168L2.68398 23.6835C2.21732 24.1502 2.21732 24.8502 2.68398 25.3168C3.15065 25.7835 3.85065 25.7835 4.31732 25.3168L7.58398 22.0502L10.8507 25.3168C11.3173 25.7835 12.0173 25.7835 12.484 25.3168C12.9507 24.8502 12.9507 24.1502 12.484 23.6835L9.21732 20.4168L12.484 17.1502C12.9507 16.6835 12.9507 15.9835 12.484 15.5168ZM24.5007 15.1668H16.334C15.634 15.1668 15.1673 15.6335 15.1673 16.3335V24.5002C15.1673 25.2002 15.634 25.6668 16.334 25.6668H24.5007C25.2007 25.6668 25.6673 25.2002 25.6673 24.5002V16.3335C25.6673 15.6335 25.2007 15.1668 24.5007 15.1668ZM23.334 23.3335H17.5007V17.5002H23.334V23.3335Z" fill="#004DFF"/>
</svg>
