<svg width="40" height="40" viewBox="0 0 40 40" fill="none" xmlns="http://www.w3.org/2000/svg">
<rect width="40" height="40" rx="20" fill="#25B003"/>
<path d="M28.9459 13.6131C28.822 13.4882 28.6745 13.389 28.5121 13.3213C28.3496 13.2536 28.1753 13.2188 27.9993 13.2188C27.8233 13.2188 27.649 13.2536 27.4865 13.3213C27.324 13.389 27.1766 13.4882 27.0526 13.6131L17.1193 23.5598L12.9459 19.3731C12.8173 19.2488 12.6653 19.1511 12.4989 19.0855C12.3324 19.0199 12.1546 18.9877 11.9757 18.9908C11.7968 18.9939 11.6203 19.0322 11.4562 19.1035C11.292 19.1748 11.1436 19.2778 11.0193 19.4065C10.895 19.5352 10.7972 19.6871 10.7316 19.8536C10.666 20.02 10.6338 20.1978 10.6369 20.3767C10.64 20.5556 10.6783 20.7322 10.7496 20.8963C10.821 21.0604 10.9239 21.2088 11.0526 21.3331L16.1726 26.4531C16.2966 26.5781 16.444 26.6773 16.6065 26.745C16.769 26.8127 16.9433 26.8475 17.1193 26.8475C17.2953 26.8475 17.4696 26.8127 17.6321 26.745C17.7945 26.6773 17.942 26.5781 18.0659 26.4531L28.9459 15.5731C29.0813 15.4483 29.1893 15.2968 29.2632 15.1281C29.3371 14.9594 29.3752 14.7773 29.3752 14.5931C29.3752 14.409 29.3371 14.2269 29.2632 14.0582C29.1893 13.8895 29.0813 13.738 28.9459 13.6131Z" fill="white"/>
</svg>
