<svg width="45" height="45" viewBox="0 0 45 45" fill="none" xmlns="http://www.w3.org/2000/svg">
<path d="M14.31 29.9925C13.8565 30.3734 13.5715 30.9177 13.5167 31.5074C13.4619 32.0971 13.6419 32.6846 14.0175 33.1425C14.2064 33.3703 14.4384 33.5587 14.7002 33.6967C14.9619 33.8347 15.2484 33.9198 15.5431 33.947C15.8378 33.9741 16.1349 33.9429 16.4175 33.855C16.7002 33.7672 16.9627 33.6245 17.19 33.435C18.6941 32.2223 20.568 31.561 22.5 31.561C24.4321 31.561 26.3059 32.2223 27.81 33.435C28.2148 33.7704 28.7243 33.9535 29.25 33.9525C29.7081 33.948 30.1538 33.8038 30.5277 33.5391C30.9016 33.2745 31.1858 32.902 31.3423 32.4715C31.4989 32.041 31.5203 31.573 31.4037 31.13C31.2872 30.687 31.0382 30.2902 30.69 29.9925C28.3683 28.1263 25.4788 27.1089 22.5 27.1089C19.5212 27.1089 16.6317 28.1263 14.31 29.9925ZM16.2225 19.215C16.6441 19.6341 17.2143 19.8693 17.8088 19.8693C18.4032 19.8693 18.9734 19.6341 19.395 19.215C19.8141 18.7934 20.0493 18.2232 20.0493 17.6288C20.0493 17.0343 19.8141 16.4641 19.395 16.0425C18.1074 14.8207 16.4 14.1396 14.625 14.1396C12.85 14.1396 11.1426 14.8207 9.85501 16.0425C9.61948 16.2442 9.42818 16.4924 9.29313 16.7716C9.15807 17.0507 9.08218 17.3548 9.07021 17.6646C9.05824 17.9745 9.11046 18.2835 9.22357 18.5722C9.33669 18.861 9.50827 19.1232 9.72755 19.3425C9.94682 19.5617 10.2091 19.7333 10.4978 19.8464C10.7865 19.9596 11.0955 20.0118 11.4054 19.9998C11.7152 19.9878 12.0193 19.9119 12.2984 19.7769C12.5776 19.6418 12.8258 19.4505 13.0275 19.215C13.2367 19.0041 13.4855 18.8367 13.7597 18.7225C14.0339 18.6083 14.328 18.5495 14.625 18.5495C14.922 18.5495 15.2161 18.6083 15.4903 18.7225C15.7645 18.8367 16.0133 19.0041 16.2225 19.215V19.215ZM22.5 0C18.0499 0 13.6998 1.3196 9.99968 3.79193C6.29957 6.26427 3.41569 9.77828 1.71272 13.8896C0.00974889 18.001 -0.435826 22.525 0.432341 26.8895C1.30051 31.2541 3.44343 35.2632 6.59011 38.4099C9.73679 41.5566 13.7459 43.6995 18.1105 44.5677C22.4751 45.4358 26.9991 44.9903 31.1104 43.2873C35.2217 41.5843 38.7357 38.7004 41.2081 35.0003C43.6804 31.3002 45 26.9501 45 22.5C45 19.5453 44.418 16.6194 43.2873 13.8896C42.1566 11.1598 40.4992 8.67942 38.4099 6.5901C36.3206 4.50078 33.8402 2.84344 31.1104 1.71271C28.3806 0.58198 25.4548 0 22.5 0V0ZM22.5 40.5C18.9399 40.5 15.4598 39.4443 12.4997 37.4665C9.53966 35.4886 7.23256 32.6774 5.87018 29.3883C4.5078 26.0992 4.15134 22.48 4.84588 18.9884C5.54041 15.4967 7.25474 12.2894 9.77209 9.77208C12.2894 7.25473 15.4967 5.5404 18.9884 4.84587C22.48 4.15133 26.0992 4.50779 29.3883 5.87017C32.6774 7.23255 35.4886 9.53965 37.4665 12.4997C39.4443 15.4598 40.5 18.9399 40.5 22.5C40.5 27.2739 38.6036 31.8523 35.2279 35.2279C31.8523 38.6036 27.2739 40.5 22.5 40.5V40.5ZM35.145 16.0425C33.8574 14.8207 32.15 14.1396 30.375 14.1396C28.6 14.1396 26.8926 14.8207 25.605 16.0425C25.2364 16.4729 25.0438 17.0266 25.0657 17.5929C25.0875 18.1591 25.3223 18.6963 25.723 19.097C26.1237 19.4977 26.6609 19.7325 27.2271 19.7544C27.7934 19.7762 28.3471 19.5836 28.7775 19.215C28.9867 19.0041 29.2355 18.8367 29.5097 18.7225C29.7839 18.6083 30.078 18.5495 30.375 18.5495C30.672 18.5495 30.9661 18.6083 31.2403 18.7225C31.5145 18.8367 31.7633 19.0041 31.9725 19.215C32.3941 19.6341 32.9643 19.8693 33.5588 19.8693C34.1532 19.8693 34.7234 19.6341 35.145 19.215C35.5641 18.7934 35.7993 18.2232 35.7993 17.6288C35.7993 17.0343 35.5641 16.4641 35.145 16.0425V16.0425Z" fill="#CC1B00"/>
</svg>
