<svg width="19" height="23" viewBox="0 0 19 23" fill="none" xmlns="http://www.w3.org/2000/svg">
<path d="M16.6834 7.105L17.745 6.055C17.9647 5.83531 18.0881 5.53735 18.0881 5.22667C18.0881 4.91598 17.9647 4.61802 17.745 4.39833C17.5253 4.17865 17.2274 4.05523 16.9167 4.05523C16.606 4.05523 16.3081 4.17865 16.0884 4.39833L15.0384 5.46C13.4033 4.19516 11.3947 3.50891 9.32753 3.50891C7.26038 3.50891 5.25172 4.19516 3.6167 5.46L2.55503 4.38667C2.3338 4.16698 2.03435 4.04417 1.72257 4.04527C1.41079 4.04636 1.11222 4.17127 0.892531 4.3925C0.672843 4.61373 0.550039 4.91318 0.551132 5.22496C0.552226 5.53674 0.677129 5.83531 0.898364 6.055L1.9717 7.11667C0.691882 8.74714 -0.00254702 10.7606 3.06005e-05 12.8333C-0.00377937 14.3213 0.348238 15.7887 1.02672 17.113C1.70521 18.4373 2.6905 19.5802 3.90042 20.4463C5.11034 21.3125 6.50982 21.8768 7.98214 22.0922C9.45447 22.3077 10.957 22.1679 12.3643 21.6847C13.7717 21.2015 15.0431 20.3888 16.0725 19.3144C17.102 18.2399 17.8596 16.935 18.2823 15.5082C18.7049 14.0815 18.7803 12.5744 18.5022 11.1127C18.224 9.65089 17.6004 8.2768 16.6834 7.105V7.105ZM9.33337 19.8333C7.9489 19.8333 6.59552 19.4228 5.44437 18.6536C4.29323 17.8845 3.39602 16.7912 2.86621 15.5121C2.33639 14.233 2.19777 12.8256 2.46787 11.4677C2.73796 10.1098 3.40465 8.86255 4.38362 7.88359C5.36258 6.90462 6.60987 6.23793 7.96773 5.96784C9.3256 5.69774 10.7331 5.83636 12.0121 6.36618C13.2912 6.89599 14.3845 7.7932 15.1537 8.94434C15.9228 10.0955 16.3334 11.4489 16.3334 12.8333C16.3334 14.6898 15.5959 16.4703 14.2831 17.7831C12.9704 19.0958 11.1899 19.8333 9.33337 19.8333ZM7.00003 2.33333H11.6667C11.9761 2.33333 12.2729 2.21042 12.4917 1.99162C12.7104 1.77283 12.8334 1.47609 12.8334 1.16667C12.8334 0.857247 12.7104 0.560501 12.4917 0.341709C12.2729 0.122916 11.9761 0 11.6667 0H7.00003C6.69061 0 6.39387 0.122916 6.17507 0.341709C5.95628 0.560501 5.83336 0.857247 5.83336 1.16667C5.83336 1.47609 5.95628 1.77283 6.17507 1.99162C6.39387 2.21042 6.69061 2.33333 7.00003 2.33333V2.33333ZM10.5 9.33333C10.5 9.02391 10.3771 8.72717 10.1583 8.50838C9.93953 8.28958 9.64278 8.16667 9.33337 8.16667C9.02395 8.16667 8.7272 8.28958 8.50841 8.50838C8.28961 8.72717 8.1667 9.02391 8.1667 9.33333V11.5383C7.90253 11.7746 7.71633 12.0855 7.63274 12.43C7.54914 12.7744 7.5721 13.1361 7.69856 13.4671C7.82503 13.7982 8.04904 14.0831 8.34096 14.2841C8.63288 14.4851 8.97895 14.5927 9.33337 14.5927C9.68778 14.5927 10.0339 14.4851 10.3258 14.2841C10.6177 14.0831 10.8417 13.7982 10.9682 13.4671C11.0946 13.1361 11.1176 12.7744 11.034 12.43C10.9504 12.0855 10.7642 11.7746 10.5 11.5383V9.33333Z" fill="#D6630A"/>
</svg>
