<svg width="24" height="24" viewBox="0 0 24 24" fill="none" xmlns="http://www.w3.org/2000/svg">
<path d="M22.5167 9.42672C22.1888 9.03314 21.7786 8.71632 21.315 8.4986C20.8513 8.28089 20.3456 8.1676 19.8333 8.16672H14.5133L15.1667 6.49839C15.4384 5.76792 15.5289 4.98242 15.4304 4.20929C15.3319 3.43616 15.0473 2.69847 14.6011 2.05949C14.1548 1.42051 13.5602 0.899315 12.8683 0.540619C12.1763 0.181923 11.4077 -0.00356933 10.6283 5.20231e-05C10.4039 0.000520279 10.1844 0.0657065 9.99608 0.187795C9.80778 0.309884 9.65868 0.483694 9.56667 0.688385L6.24167 8.16672H3.5C2.57174 8.16672 1.6815 8.53547 1.02513 9.19185C0.368749 9.84822 0 10.7385 0 11.6667V19.8334C0 20.7616 0.368749 21.6519 1.02513 22.3083C1.6815 22.9646 2.57174 23.3334 3.5 23.3334H18.3517C19.1704 23.3331 19.9632 23.0458 20.592 22.5214C21.2209 21.997 21.646 21.2688 21.7933 20.4634L23.275 12.2967C23.3666 11.792 23.3462 11.2733 23.2152 10.7773C23.0841 10.2814 22.8457 9.8203 22.5167 9.42672ZM5.83333 21.0001H3.5C3.19058 21.0001 2.89383 20.8771 2.67504 20.6583C2.45625 20.4396 2.33333 20.1428 2.33333 19.8334V11.6667C2.33333 11.3573 2.45625 11.0606 2.67504 10.8418C2.89383 10.623 3.19058 10.5001 3.5 10.5001H5.83333V21.0001ZM21 11.8767L19.5183 20.0434C19.4686 20.3152 19.3241 20.5605 19.1105 20.7357C18.8968 20.9109 18.6279 21.0046 18.3517 21.0001H8.16667V9.57839L11.34 2.43839C11.6666 2.53362 11.97 2.69553 12.2309 2.9139C12.4919 3.13227 12.7047 3.40236 12.856 3.70713C13.0073 4.01189 13.0937 4.34471 13.1099 4.68457C13.1261 5.02443 13.0716 5.36396 12.95 5.68172L12.3317 7.35005C12.1999 7.70268 12.1554 8.08196 12.202 8.45551C12.2486 8.82905 12.3849 9.18578 12.5992 9.49525C12.8136 9.80472 13.0996 10.0577 13.4329 10.2327C13.7662 10.4077 14.1369 10.4994 14.5133 10.5001H19.8333C20.0047 10.4998 20.1741 10.5373 20.3293 10.6099C20.4846 10.6824 20.622 10.7884 20.7317 10.9201C20.8441 11.0499 20.9264 11.203 20.9728 11.3684C21.0192 11.5338 21.0285 11.7073 21 11.8767Z" fill="#004DFF"/>
</svg>
