<svg width="18" height="18" viewBox="0 0 18 18" fill="none" xmlns="http://www.w3.org/2000/svg">
<g clip-path="url(#clip0_38012_3533)">
<path d="M13.0875 9.34482C13.9631 8.26668 14.3758 6.88547 14.2353 5.50366C14.0947 4.12185 13.4123 2.85205 12.3375 1.97232C11.7217 1.47881 11.0038 1.12855 10.2358 0.946932C9.46783 0.76532 8.66907 0.756913 7.89745 0.922321C7.03109 1.11394 6.22743 1.52202 5.56154 2.10843C4.89564 2.69485 4.38923 3.44047 4.08962 4.27565C3.79 5.11083 3.70695 6.00833 3.84822 6.88431C3.98949 7.76029 4.35047 8.58617 4.89745 9.28482C5.39596 9.89131 5.68065 10.6452 5.70745 11.4298V11.6473C5.42207 11.923 5.25757 12.3006 5.24995 12.6973V14.1973C5.24995 14.5951 5.40799 14.9767 5.68929 15.258C5.9706 15.5393 6.35213 15.6973 6.74995 15.6973V16.4473C6.74995 16.6462 6.82897 16.837 6.96962 16.9777C7.11028 17.1183 7.30104 17.1973 7.49995 17.1973C7.69887 17.1973 7.88963 17.1183 8.03028 16.9777C8.17094 16.837 8.24995 16.6462 8.24995 16.4473V15.6973H9.74995V16.4473C9.74995 16.6462 9.82897 16.837 9.96962 16.9777C10.1103 17.1183 10.301 17.1973 10.5 17.1973C10.6989 17.1973 10.8896 17.1183 11.0303 16.9777C11.1709 16.837 11.25 16.6462 11.25 16.4473V15.6973C11.6478 15.6973 12.0293 15.5393 12.3106 15.258C12.5919 14.9767 12.75 14.5951 12.75 14.1973V12.6973C12.7503 12.3049 12.5968 11.9279 12.3225 11.6473V11.3248C12.3444 10.5969 12.6143 9.89835 13.0875 9.34482V9.34482ZM6.74995 14.1973V12.6973H11.25V14.1973H6.74995ZM11.9175 8.40732C11.2535 9.19039 10.8684 10.1717 10.8225 11.1973H7.16995C7.09921 10.1583 6.70592 9.16717 6.04495 8.36232C5.64791 7.86404 5.38437 7.27282 5.27919 6.64445C5.17401 6.01607 5.23067 5.37125 5.44381 4.77084C5.65696 4.17043 6.01957 3.63423 6.49742 3.21282C6.97527 2.79142 7.5526 2.49871 8.17495 2.36232C8.72635 2.23795 9.29873 2.23983 9.8493 2.36783C10.3999 2.49584 10.9144 2.74665 11.3543 3.10152C11.7943 3.45638 12.1484 3.90612 12.3901 4.4171C12.6317 4.92808 12.7548 5.48709 12.75 6.05232C12.7547 6.91023 12.4603 7.74297 11.9175 8.40732Z" fill="#FA3B1D"/>
</g>
<defs>
<clipPath id="clip0_38012_3533">
<rect width="18" height="18" fill="white"/>
</clipPath>
</defs>
</svg>
