<svg width="80" height="20" viewBox="0 0 80 20" fill="none" xmlns="http://www.w3.org/2000/svg">
<g clip-path="url(#clip0_37579_6263)">
<path d="M45.184 0H41.9531V13.7097H45.184V0Z" fill="#E3E6ED"/>
<path d="M57.6091 16.7581H41.9531V20H57.6091V16.7581Z" fill="#E3E6ED"/>
<path d="M36.0063 0H32.7754V13.7097H36.0063V0Z" fill="#E3E6ED"/>
<path d="M24.6742 0H21.4434V16.7581V18.5161V20H35.9903V16.7581H24.6742V0Z" fill="#E3E6ED"/>
<path d="M15.4953 0H0V3.24194H15.4953V0Z" fill="#E3E6ED"/>
<path d="M12.9556 6.30646H8.77637L0 16.5807V20H15.4953V16.7581H4.29174L12.9556 6.30646Z" fill="#E3E6ED"/>
<path d="M73.2324 0H69.2461L75.8203 20H79.9996L73.2324 0Z" fill="#E3E6ED"/>
<path d="M61.6602 20H65.8233L69.1828 9.80648L67.1574 3.72583L61.6602 20Z" fill="#E3E6ED"/>
</g>
<defs>
<clipPath id="clip0_37579_6263">
<rect width="80" height="20" fill="white"/>
</clipPath>
</defs>
</svg>
